<svg width="224" height="36" viewBox="0 0 224 36" fill="none" xmlns="http://www.w3.org/2000/svg">
<path d="M12.1236 35.3495L0 0.88353H6.28545L15.5724 28.5074L24.8946 0.88353H31.133L19.0094 35.3495H12.1236Z" fill="white"/>
<path d="M34.4284 6.05258C33.0748 4.67023 33.0748 2.6025 34.4284 1.27823C35.7703 -0.104122 37.9714 -0.104122 39.3132 1.27823C40.655 2.6025 40.655 4.68184 39.2661 6.05258C37.9243 7.37685 35.8291 7.37685 34.4284 6.05258ZM34.1813 35.3492V10.7224H39.5722V35.3492H34.1813Z" fill="white"/>
<path d="M49.4946 35.3492V15.8569H43.986V10.734H49.4946V3.83388H54.8855V10.7224H60.1586V15.8453H54.8855V35.3492H49.4946Z" fill="white"/>
<path d="M84.4532 10.7343H89.844V35.3611H84.4532V31.8181C82.4051 34.6293 79.5095 36 75.7194 36C72.2825 36 69.3869 34.7687 66.9387 32.2595C64.4904 29.7504 63.3016 26.6488 63.3016 23.0477C63.3016 19.4001 64.5022 16.345 66.9387 13.8359C69.3869 11.3267 72.2825 10.0954 75.7194 10.0954C79.5095 10.0954 82.4051 11.4777 84.4532 14.2308V10.7343ZM76.5669 30.9236C78.8151 30.9236 80.7101 30.1802 82.205 28.7049C83.6998 27.1831 84.4532 25.3129 84.4532 23.0361C84.4532 20.7593 83.6998 18.9006 82.205 17.4253C80.7101 15.9036 78.8151 15.1601 76.5669 15.1601C74.3188 15.1601 72.4237 15.9036 70.9289 17.4253C69.434 18.9006 68.6807 20.7709 68.6807 23.0361C68.6807 25.3013 69.434 27.1715 70.9289 28.7049C72.4237 30.1802 74.3305 30.9236 76.5669 30.9236Z" fill="white"/>
<path d="M109.771 0.88353C114.562 0.88353 118.552 2.55629 121.695 5.85536C124.885 9.15442 126.485 13.2434 126.485 18.1223C126.485 22.9431 124.885 27.0321 121.695 30.3892C118.552 33.6883 114.562 35.3611 109.771 35.3611H96.0468V0.88353H109.771ZM109.771 29.9362C113.067 29.9362 115.762 28.8094 117.811 26.5907C119.906 24.3719 120.953 21.5143 120.953 18.1223C120.953 14.6722 119.906 11.8727 117.811 9.65393C115.762 7.43519 113.067 6.3084 109.771 6.3084H101.791V29.9478H109.771V29.9362Z" fill="white"/>
<path d="M148.838 23.0941L143.306 7.52812L137.762 23.0941L135.867 28.4028L133.419 35.3495H127.18L139.857 0.88353H146.743L159.373 35.3495H153.182L150.733 28.4028" fill="white"/>
<path d="M178.181 35.988C173.143 35.988 168.847 34.2687 165.304 30.8187C161.808 27.3221 160.066 23.0821 160.066 18.1103C160.066 13.1385 161.808 8.89848 165.304 5.46002C168.847 1.96347 173.143 0.244244 178.181 0.244244C183.219 0.244244 187.515 1.96347 190.999 5.46002C194.542 8.91009 196.284 13.1385 196.284 18.1103C196.284 23.0821 194.542 27.3221 190.999 30.8187C187.515 34.2687 183.219 35.988 178.181 35.988ZM178.181 30.4818C181.677 30.4818 184.62 29.2969 186.962 26.9852C189.352 24.6271 190.552 21.6649 190.552 18.1219C190.552 14.5789 189.352 11.6167 186.962 9.30505C184.62 6.94692 181.677 5.76204 178.181 5.76204C174.685 5.76204 171.743 6.94692 169.353 9.30505C167.011 11.6167 165.81 14.5789 165.81 18.1219C165.81 21.6649 167.011 24.6271 169.353 26.9852C171.743 29.2969 174.685 30.4818 178.181 30.4818Z" fill="white"/>
<path d="M203.56 0.72079L203.784 0.871804C207.833 3.69459 213.247 3.69459 217.284 0.848571C220.627 -1.49795 224.865 2.27739 222.828 5.79717L215.884 17.7969C213.494 21.9324 207.456 21.9324 205.055 17.7969L198.04 5.66939C196.003 2.17284 200.217 -1.61411 203.56 0.72079Z" fill="#FFDD35"/>
</svg>