<?xml version="1.0" encoding="utf-8"?>
<!-- Generator: Adobe Illustrator 24.1.3, SVG Export Plug-In . SVG Version: 6.00 Build 0)  -->
<svg version="1.1" id="Layer_1" xmlns="http://www.w3.org/2000/svg" xmlns:xlink="http://www.w3.org/1999/xlink" x="0px" y="0px"
	 viewBox="0 0 1897.6 309.8" style="enable-background:new 0 0 1897.6 309.8;" xml:space="preserve">
<style type="text/css">
	.st0{fill:#FFDD35;}
</style>
<g>
	<g>
		<path d="M103,304.3L0,7.6h53.4l78.9,237.8L211.5,7.6h53l-103,296.7H103z"/>
		<path d="M292.5,52.1C281,40.2,281,22.4,292.5,11c11.4-11.9,30.1-11.9,41.5,0c11.4,11.4,11.4,29.3-0.4,41.1
			C322.2,63.5,304.4,63.5,292.5,52.1z M290.4,304.3v-212h45.8v212H290.4z"/>
		<path d="M420.5,304.3V136.4h-46.8V92.4h46.8V33h45.8v59.3h44.8v44.1h-44.8v167.9H420.5z"/>
		<path d="M717.5,92.4h45.8v212h-45.8v-30.5c-17.4,24.2-42,36-74.2,36c-29.2,0-53.8-10.6-74.6-32.2c-20.8-21.6-30.9-48.3-30.9-79.3
			c0-31.4,10.2-57.7,30.9-79.3c20.8-21.6,45.4-32.2,74.6-32.2c32.2,0,56.8,11.9,74.2,35.6V92.4z M650.5,266.2
			c19.1,0,35.2-6.4,47.9-19.1c12.7-13.1,19.1-29.2,19.1-48.8s-6.4-35.6-19.1-48.3c-12.7-13.1-28.8-19.5-47.9-19.5
			s-35.2,6.4-47.9,19.5c-12.7,12.7-19.1,28.8-19.1,48.3s6.4,35.6,19.1,48.8C615.3,259.8,631.5,266.2,650.5,266.2z"/>
		<path d="M932.6,7.6c40.7,0,74.6,14.4,101.3,42.8c27.1,28.4,40.7,63.6,40.7,105.6c0,41.5-13.6,76.7-40.7,105.6
			c-26.7,28.4-60.6,42.8-101.3,42.8H816V7.6H932.6z M932.6,257.7c28,0,50.9-9.7,68.3-28.8c17.8-19.1,26.7-43.7,26.7-72.9
			c0-29.7-8.9-53.8-26.7-72.9c-17.4-19.1-40.3-28.8-68.3-28.8h-67.8v203.5H932.6z"/>
		<polyline points="1264.5,198.8 1217.5,64.8 1170.4,198.8 1154.3,244.5 1133.5,304.3 1080.5,304.3 1188.2,7.6 1246.7,7.6 
			1354,304.3 1301.4,304.3 1280.6,244.5 		"/>
		<path d="M1513.8,309.8c-42.8,0-79.3-14.8-109.4-44.5c-29.7-30.1-44.5-66.6-44.5-109.4c0-42.8,14.8-79.3,44.5-108.9
			c30.1-30.1,66.6-44.9,109.4-44.9c42.8,0,79.3,14.8,108.9,44.9c30.1,29.7,44.9,66.1,44.9,108.9c0,42.8-14.8,79.3-44.9,109.4
			C1593.1,295,1556.6,309.8,1513.8,309.8z M1513.8,262.4c29.7,0,54.7-10.2,74.6-30.1c20.3-20.3,30.5-45.8,30.5-76.3
			c0-30.5-10.2-56-30.5-75.9c-19.9-20.3-44.9-30.5-74.6-30.5s-54.7,10.2-75,30.5c-19.9,19.9-30.1,45.4-30.1,75.9
			c0,30.5,10.2,56,30.1,76.3C1459.1,252.2,1484.1,262.4,1513.8,262.4z"/>
	</g>
	<path class="st0" d="M1729.4,6.2l1.9,1.3c34.4,24.3,80.4,24.3,114.7-0.2l0,0c28.4-20.2,64.4,12.3,47.1,42.6l-59,103.3
		c-20.3,35.6-71.6,35.6-92,0l-59.6-104.4C1665.2,18.7,1701-13.9,1729.4,6.2z"/>
</g>
</svg>
